<svg xmlns="http://www.w3.org/2000/svg" width="16" height="16" viewBox="0 0 16 16">
    <g fill="none" fill-rule="evenodd">
        <circle cx="8" cy="8" r="8" fill="#93D1D1"/>
        <path fill="#FFF" fill-rule="nonzero" d="M6.987 9.443c0-.618.07-1.106.21-1.463.139-.358.365-.668.678-.93.314-.263.552-.503.715-.72.163-.219.244-.459.244-.721 0-.64-.275-.959-.825-.959a.766.766 0 0 0-.616.28c-.157.186-.239.438-.247.755H5c.008-.846.275-1.505.8-1.977C6.325 3.236 7.06 3 8.009 3c.943 0 1.675.218 2.193.654.518.436.777 1.056.777 1.86 0 .35-.07.67-.209.958-.14.288-.364.582-.673.882l-.73.68a1.717 1.717 0 0 0-.431.612c-.08.21-.125.475-.134.797H6.987zm-.26 1.93c0-.314.113-.57.34-.772.226-.2.508-.301.847-.301.338 0 .62.1.847.301.226.201.34.458.34.772 0 .313-.114.57-.34.77-.226.202-.509.302-.847.302-.339 0-.621-.1-.848-.301a.985.985 0 0 1-.34-.771z"/>
    </g>
</svg>
